<svg width="600" height="200" viewBox="0 0 600 200" fill="none" xmlns="http://www.w3.org/2000/svg">
<path d="M68.2924 77.8066C69.2594 77.5707 70.9575 77.2641 72.066 77.1462C73.1745 77.0047 75.7217 76.9575 77.7264 77.0283C79.7311 77.0755 82.4906 77.2877 83.8585 77.4764C85.2264 77.6651 86.8302 77.9245 87.467 78.066C88.0802 78.184 88.5755 78.3491 88.5755 78.4198C88.5755 78.4906 88.0802 79.1981 87.4906 80C86.9009 80.8255 86.0519 82.0991 84.8019 84.1981L82.6321 84.0094C81.4292 83.9151 78.6934 83.8443 76.5472 83.8443C73.3632 83.8443 72.349 83.9387 71.0283 84.316C69.9198 84.6462 69.2123 85 68.8349 85.4245C68.5519 85.8019 68.2924 86.2736 68.2924 86.4858C68.2924 86.7217 68.599 87.5472 68.9764 88.3255C69.3773 89.1038 70.2028 90.3538 70.816 91.0849C71.4292 91.8396 72.7972 93.2311 73.8349 94.1509C74.8726 95.0943 77.2547 97.0519 79.1415 98.4906C81.0283 99.9292 83.5283 101.745 84.684 102.524C85.8396 103.302 87.7736 104.528 88.9292 105.236C90.0849 105.967 92.2783 107.241 93.7641 108.09C95.25 108.915 98.2689 110.519 100.486 111.604C102.703 112.712 106.241 114.387 108.387 115.33C110.533 116.274 114.024 117.736 116.17 118.561C118.316 119.41 122.231 120.825 124.896 121.722C127.561 122.594 131.807 123.844 134.33 124.505C136.854 125.142 140.58 125.943 142.585 126.297C144.59 126.627 147.774 127.028 149.66 127.17C152.349 127.382 153.552 127.382 155.321 127.146C156.547 126.981 158.033 126.651 158.623 126.415C159.212 126.156 159.943 125.684 160.274 125.33C160.745 124.835 160.863 124.481 160.863 123.491C160.863 122.524 160.698 121.981 160.038 120.873C159.59 120.118 158.198 118.467 156.972 117.241C155.722 115.991 153.835 114.34 152.774 113.561C151.099 112.335 150.84 112.052 150.934 111.557C150.981 111.226 151.311 109.741 151.665 108.255C152.019 106.769 152.349 105.472 152.396 105.354C152.443 105.259 153.104 105.59 153.835 106.108C154.59 106.604 156.052 107.689 157.09 108.491C158.127 109.316 159.92 110.896 161.052 112.005C162.208 113.113 163.693 114.717 164.354 115.566C165.038 116.392 166.028 117.877 166.571 118.868C167.208 119.953 167.726 121.297 167.962 122.406C168.245 123.608 168.316 124.623 168.198 125.59C168.104 126.368 167.75 127.618 167.396 128.396C166.995 129.269 166.288 130.212 165.509 130.92C164.849 131.557 163.717 132.335 163.057 132.642C162.373 132.948 161.17 133.373 160.392 133.585C159.613 133.774 157.703 134.08 156.146 134.245C153.953 134.458 152.443 134.458 149.354 134.245C147.184 134.08 143.906 133.703 142.066 133.373C140.203 133.066 136.948 132.358 134.802 131.84C132.656 131.297 129.212 130.354 127.137 129.717C125.061 129.08 122.302 128.184 121.005 127.736C119.708 127.311 117.16 126.392 115.344 125.708C113.528 125.024 110.179 123.679 107.915 122.712C105.651 121.745 101.453 119.811 98.599 118.42C95.7453 117.028 91.5472 114.858 89.283 113.585C87.0189 112.311 83.3632 110.071 81.1462 108.608C78.9528 107.146 76.1698 105.236 75.0141 104.363C73.8585 103.491 72.0424 102.052 71.0047 101.179C69.967 100.283 67.9858 98.4198 66.6179 97.0047C65.25 95.6132 63.6462 93.7028 63.0566 92.8066C62.467 91.8868 61.7358 90.5189 61.4528 89.7406C61.0047 88.6321 60.8868 87.8302 60.8868 86.0849C60.8632 84.1274 60.934 83.6792 61.5 82.5472C61.8538 81.7924 62.5849 80.8255 63.2689 80.2358C63.8821 79.6698 64.8726 79.0094 65.4623 78.7264C66.0519 78.467 67.3255 78.0424 68.2924 77.8066Z" fill="#33CCFF"/>
<path d="M151.453 48.2311C151.736 47.1226 152.09 46.3679 152.514 45.9434V45.9198C152.868 45.566 153.387 45.283 153.646 45.283C153.929 45.283 154.448 45.566 154.802 45.9198C155.297 46.4151 155.651 47.1934 156.123 48.8208C156.476 50.0472 157.184 51.9104 157.679 52.9481C158.198 53.9859 159.024 55.3302 159.495 55.9198C159.991 56.5094 160.863 57.3821 161.453 57.8302C162.042 58.3019 163.316 59.0566 164.283 59.5283C165.25 60 166.948 60.6368 168.057 60.967C169.165 61.2972 170.297 61.6981 170.604 61.8396C170.887 62.0047 171.217 62.4057 171.335 62.7359C171.429 63.066 171.429 63.5849 171.335 63.9151C171.217 64.2453 170.887 64.6226 170.604 64.7877C170.297 64.9528 168.835 65.5189 167.349 66.0613C165.863 66.6038 164.047 67.3821 163.34 67.7594C162.632 68.1604 161.358 69.1745 160.509 70.0472C159.448 71.0849 158.646 72.1934 157.986 73.467C157.467 74.5047 156.807 76.0377 156.524 76.8868C156.264 77.7359 155.934 78.8443 155.816 79.3632C155.698 79.8821 155.391 80.5425 155.156 80.8255C154.92 81.1321 154.401 81.4387 154.024 81.5094C153.505 81.6038 153.127 81.5094 152.656 81.1557C152.184 80.8019 151.901 80.2123 151.547 78.9387C151.288 78.0189 150.792 76.5094 150.439 75.5896C150.108 74.6698 149.377 73.2547 148.858 72.4292C148.316 71.5802 147.255 70.3302 146.476 69.6462C145.698 68.9387 144.377 68.0189 143.528 67.5943C142.679 67.1462 140.887 66.3915 139.519 65.9198C138.151 65.4481 136.807 64.8113 136.5 64.5283C136.17 64.2217 135.958 63.75 135.958 63.3255C135.958 62.9009 136.17 62.4292 136.5 62.1226C136.807 61.8396 138.033 61.3208 139.283 60.967C140.509 60.6368 142.302 59.9528 143.269 59.4811C144.236 59.0094 145.675 58.0189 146.453 57.2877C147.255 56.5802 148.316 55.3066 148.858 54.4575C149.377 53.6321 150.085 52.2642 150.439 51.4151C150.769 50.566 151.217 49.1274 151.453 48.2311Z" fill="#FF3399"/>
<path d="M110.274 67.4528C111.241 67.3113 112.208 67.1462 112.396 67.0991C112.585 67.0519 114.778 67.0519 117.231 67.0991C120.274 67.1462 122.278 67.2877 123.481 67.5708C124.448 67.783 126.217 68.2783 127.373 68.6557C128.528 69.0566 130.462 69.8349 131.618 70.4009C132.774 70.967 134.59 72.0047 135.604 72.6887C136.642 73.3726 138.34 74.6934 139.377 75.5896C140.439 76.5094 142.184 78.3962 143.292 79.7642C144.401 81.1321 145.745 83.0425 146.288 83.9859C146.854 84.9528 147.656 86.5802 148.104 87.6179C148.552 88.6557 149.212 90.4717 149.542 91.6274C149.873 92.783 150.321 94.8113 150.509 96.1085C150.792 97.8302 150.84 99.4576 150.769 102.123C150.675 104.387 150.462 106.58 150.179 107.901C149.92 109.057 149.425 110.873 149.071 111.91C148.717 112.948 147.986 114.764 147.443 115.92C146.901 117.075 145.745 119.104 144.873 120.401C144 121.698 142.986 123.113 141.995 124.316L139.991 123.939C138.882 123.726 136.406 123.137 134.448 122.618C132.514 122.123 129.425 121.25 127.609 120.684C125.792 120.094 123.033 119.198 121.476 118.632C119.92 118.09 116.995 116.981 114.991 116.156C112.986 115.33 110.109 114.104 108.623 113.443C107.137 112.759 103.741 111.108 101.076 109.788C98.4104 108.443 94.8491 106.58 93.1746 105.613C91.5 104.67 88.717 102.995 87.0425 101.91C85.368 100.849 83.6463 99.6934 82.4906 98.7028L82.7264 96.6981C82.8444 95.5896 83.1981 93.6321 83.5283 92.3349C83.8585 91.0377 84.5425 88.9623 85.0614 87.7359C85.5802 86.5094 86.4293 84.7642 86.9717 83.8443C87.5142 82.9245 88.5048 81.4623 89.1887 80.5425C89.8491 79.6226 91.5708 77.783 92.9859 76.4151C94.3774 75.0472 96.4293 73.3255 97.5378 72.5943C98.6463 71.8632 100.344 70.8726 101.311 70.4009C102.278 69.9057 104.307 69.1038 105.792 68.6321C107.278 68.1368 109.307 67.6179 110.274 67.4528Z" fill="#E0E0FF"/>
<path d="M84.4717 114.033C84.2831 113.514 84.1887 113.019 84.2595 112.925C84.3302 112.83 84.7312 112.948 85.1321 113.184C85.5331 113.42 86.9717 114.269 88.3397 115.047C89.7076 115.825 93.1038 117.594 95.8868 118.986C98.6698 120.377 102.491 122.217 104.377 123.066C106.264 123.892 110.014 125.472 112.75 126.533C115.486 127.618 119.094 128.962 120.769 129.552C122.443 130.118 125.203 131.014 126.854 131.509C128.505 132.005 129.826 132.547 129.778 132.665C129.731 132.783 128.976 133.184 128.104 133.538C127.255 133.915 125.509 134.458 124.236 134.764C122.986 135.094 121.052 135.472 119.943 135.637C118.741 135.802 116.783 135.873 115.109 135.778C113.552 135.708 111.17 135.425 109.802 135.142C108.434 134.858 106.524 134.363 105.557 134.033C104.59 133.703 102.892 133.019 101.783 132.5C100.675 132.005 98.717 130.873 97.4198 130.024C95.8632 128.986 94.118 127.524 92.3255 125.731C90.8397 124.222 89.0236 122.146 88.2925 121.108C87.5614 120.071 86.5 118.255 85.9104 117.099C85.2972 115.943 84.6604 114.552 84.4717 114.033Z" fill="#E0E0FF"/>
<path d="M76.1934 58.0896C76.4528 57.6887 77.1604 57.1226 77.7264 56.8632C78.3868 56.5566 79.283 56.3679 80.0849 56.3679C81.0991 56.3679 81.6179 56.5094 82.4434 57.0283C83.033 57.3821 83.7406 57.9953 84.0236 58.3726C84.3066 58.7736 84.6604 59.5519 84.8255 60.1415C84.9906 60.7547 85.0377 61.6509 84.967 62.2641C84.8726 62.8774 84.4953 63.75 84.0943 64.3396C83.717 64.8821 82.9859 65.5189 82.5142 65.7783C82.0189 66.0141 81.2877 66.2972 80.9104 66.3679C80.533 66.4623 79.7311 66.4151 79.1415 66.2972C78.5519 66.1557 77.7028 65.7783 77.2547 65.4717C76.8066 65.1415 76.1462 64.3868 75.7925 63.75C75.3679 62.9953 75.1321 62.2641 75.1321 61.5566C75.1321 60.967 75.25 60.1179 75.3915 59.6698C75.5566 59.2217 75.9104 58.5141 76.1934 58.0896Z" fill="#00FFAA"/>
<path d="M162.208 92.6415C162.632 92.3585 163.245 92.0519 163.575 91.9575C163.906 91.8632 164.377 91.7689 164.637 91.7689C164.896 91.7689 165.533 91.9575 166.052 92.1934C166.571 92.4292 167.278 92.9245 167.632 93.3019C167.986 93.6792 168.387 94.4575 168.552 95.0472C168.741 95.8255 168.764 96.3679 168.575 97.0519C168.434 97.5708 168.104 98.2783 167.844 98.6321C167.561 99.0094 166.925 99.5047 166.406 99.7641C165.887 100.024 165.061 100.236 164.59 100.236C164.094 100.236 163.245 100.024 162.703 99.7641C162.019 99.434 161.5 98.9623 161.099 98.2783C160.698 97.6179 160.509 96.934 160.509 96.1557C160.509 95.5189 160.698 94.6462 160.981 94.1038C161.241 93.5849 161.807 92.9245 162.208 92.6415Z" fill="#00FFAA"/>
<path d="M202.299 122L216.763 74.512H230.587L245.051 122H233.595L231.163 113.36H216.059L213.691 122H202.299ZM218.619 103.44H228.603L223.611 83.984L218.619 103.44ZM261.4 122.384C260.248 122.384 259.053 122.341 257.816 122.256C256.578 122.171 255.362 122.064 254.168 121.936C252.973 121.808 251.842 121.637 250.776 121.424C249.752 121.168 248.856 120.891 248.088 120.592V114.128H263.704C264.429 114.128 265.005 114.064 265.432 113.936C265.858 113.808 266.157 113.616 266.328 113.36C266.498 113.061 266.584 112.656 266.584 112.144V111.184C266.584 110.587 266.37 110.117 265.944 109.776C265.56 109.392 264.749 109.2 263.512 109.2H257.88C255.96 109.2 254.189 108.901 252.568 108.304C250.989 107.707 249.73 106.704 248.792 105.296C247.853 103.845 247.384 101.947 247.384 99.6V97.552C247.384 95.3333 247.81 93.4773 248.664 91.984C249.517 90.448 250.989 89.2747 253.08 88.464C255.213 87.6533 258.136 87.248 261.848 87.248C263.341 87.248 264.898 87.3333 266.52 87.504C268.141 87.6747 269.656 87.9093 271.064 88.208C272.472 88.464 273.56 88.7413 274.328 89.04V95.504H259.544C258.605 95.504 257.901 95.6533 257.432 95.952C257.005 96.2507 256.792 96.784 256.792 97.552V98.448C256.792 98.96 256.898 99.3653 257.112 99.664C257.325 99.9627 257.688 100.176 258.2 100.304C258.712 100.389 259.352 100.432 260.12 100.432H265.816C269.485 100.432 272.088 101.264 273.624 102.928C275.16 104.549 275.928 106.811 275.928 109.712V112.976C275.928 115.28 275.373 117.136 274.264 118.544C273.197 119.909 271.576 120.891 269.4 121.488C267.266 122.085 264.6 122.384 261.4 122.384ZM294.477 122C291.704 122 289.443 121.616 287.693 120.848C285.987 120.037 284.771 118.715 284.045 116.88C283.32 115.045 283 112.549 283.085 109.392L283.405 96.336H278.093V89.296L283.853 87.568L285.261 77.904H294.029V87.568H301.517V96.336H294.029V109.328C294.029 110.053 294.093 110.672 294.221 111.184C294.349 111.653 294.541 112.059 294.797 112.4C295.053 112.699 295.352 112.933 295.693 113.104C296.035 113.232 296.419 113.317 296.845 113.36L301.197 113.808V122H294.477ZM305.836 122V87.568H314.412L316.908 92.56C318.018 91.0667 319.298 89.7867 320.748 88.72C322.199 87.6107 323.927 87.056 325.932 87.056C326.316 87.056 326.743 87.0773 327.212 87.12C327.724 87.1627 328.194 87.248 328.62 87.376V98.704C327.938 98.6187 327.234 98.5547 326.508 98.512C325.783 98.4693 325.1 98.448 324.46 98.448C323.351 98.448 322.327 98.576 321.388 98.832C320.492 99.0453 319.66 99.3867 318.892 99.856C318.167 100.283 317.506 100.859 316.908 101.584V122H305.836ZM347.997 122.32C345.053 122.32 342.535 122.021 340.445 121.424C338.397 120.784 336.733 119.781 335.453 118.416C334.173 117.008 333.255 115.195 332.701 112.976C332.146 110.715 331.869 107.963 331.869 104.72C331.869 101.221 332.146 98.3413 332.701 96.08C333.298 93.776 334.237 91.9627 335.517 90.64C336.797 89.3173 338.461 88.3787 340.509 87.824C342.599 87.2693 345.095 86.992 347.997 86.992C350.983 86.992 353.501 87.2907 355.549 87.888C357.597 88.4427 359.239 89.4027 360.477 90.768C361.757 92.0907 362.695 93.904 363.293 96.208C363.89 98.4693 364.189 101.307 364.189 104.72C364.189 108.091 363.911 110.907 363.357 113.168C362.802 115.429 361.885 117.243 360.605 118.608C359.367 119.931 357.703 120.891 355.613 121.488C353.565 122.043 351.026 122.32 347.997 122.32ZM347.997 113.552C348.978 113.552 349.789 113.467 350.429 113.296C351.069 113.083 351.581 112.699 351.965 112.144C352.349 111.547 352.626 110.651 352.797 109.456C353.01 108.261 353.117 106.661 353.117 104.656C353.117 102.651 353.01 101.051 352.797 99.856C352.626 98.6613 352.349 97.7867 351.965 97.232C351.581 96.6347 351.069 96.2507 350.429 96.08C349.789 95.9093 348.978 95.824 347.997 95.824C347.058 95.824 346.269 95.9093 345.629 96.08C344.989 96.2507 344.455 96.6347 344.029 97.232C343.645 97.7867 343.367 98.6613 343.197 99.856C343.026 101.051 342.941 102.651 342.941 104.656C342.941 106.661 343.026 108.261 343.197 109.456C343.367 110.651 343.645 111.547 344.029 112.144C344.455 112.699 344.989 113.083 345.629 113.296C346.269 113.467 347.058 113.552 347.997 113.552ZM381.737 122C379.049 122 376.831 121.595 375.081 120.784C373.332 119.973 372.031 118.693 371.177 116.944C370.324 115.195 369.897 112.933 369.897 110.16V74.512H380.969V108.304C380.969 109.2 381.097 109.925 381.353 110.48C381.652 111.035 382.079 111.44 382.633 111.696C383.231 111.952 383.913 112.08 384.681 112.08H399.081V122H381.737ZM418.29 122.32C414.45 122.32 411.356 121.829 409.01 120.848C406.663 119.824 404.956 118.053 403.89 115.536C402.866 112.976 402.354 109.413 402.354 104.848C402.354 100.155 402.823 96.528 403.762 93.968C404.743 91.3653 406.364 89.552 408.626 88.528C410.887 87.504 413.959 86.992 417.842 86.992C421.383 86.992 424.199 87.3333 426.29 88.016C428.38 88.6987 429.874 89.9147 430.77 91.664C431.708 93.4133 432.178 95.888 432.178 99.088C432.178 101.477 431.708 103.376 430.77 104.784C429.831 106.192 428.487 107.195 426.738 107.792C425.031 108.347 423.004 108.624 420.658 108.624H413.298C413.426 109.989 413.682 111.077 414.066 111.888C414.492 112.699 415.26 113.275 416.37 113.616C417.479 113.957 419.122 114.128 421.298 114.128H430.962V120.592C429.383 120.976 427.57 121.36 425.522 121.744C423.516 122.128 421.106 122.32 418.29 122.32ZM413.17 102.096H419.442C420.508 102.096 421.276 101.883 421.746 101.456C422.215 101.029 422.45 100.261 422.45 99.152C422.45 98.128 422.3 97.3173 422.002 96.72C421.703 96.08 421.212 95.632 420.53 95.376C419.847 95.0773 418.951 94.928 417.842 94.928C416.732 94.928 415.836 95.1413 415.154 95.568C414.471 95.952 413.959 96.6773 413.618 97.744C413.319 98.768 413.17 100.219 413.17 102.096ZM444.858 122.384C442.213 122.384 440.08 121.616 438.458 120.08C436.837 118.501 436.026 116.368 436.026 113.68V110.352C436.026 107.749 436.944 105.595 438.778 103.888C440.656 102.181 443.578 101.328 447.546 101.328H455.354V99.664C455.354 98.7253 455.184 97.9573 454.842 97.36C454.501 96.7627 453.84 96.336 452.858 96.08C451.877 95.824 450.362 95.696 448.314 95.696H438.202V89.36C439.909 88.72 441.893 88.208 444.154 87.824C446.458 87.3973 449.232 87.1627 452.474 87.12C455.333 87.12 457.808 87.4613 459.898 88.144C461.989 88.8267 463.589 90.0213 464.698 91.728C465.85 93.392 466.426 95.7813 466.426 98.896V122H457.658L455.93 118.48C455.546 118.821 455.013 119.227 454.33 119.696C453.69 120.123 452.88 120.549 451.898 120.976C450.96 121.403 449.893 121.744 448.698 122C447.504 122.256 446.224 122.384 444.858 122.384ZM450.554 114.768C450.853 114.811 451.194 114.789 451.578 114.704C452.005 114.619 452.41 114.533 452.794 114.448C453.178 114.32 453.541 114.213 453.882 114.128C454.266 114 454.565 113.893 454.778 113.808C455.034 113.68 455.226 113.595 455.354 113.552V106.512L451.258 106.896C449.85 107.067 448.784 107.451 448.058 108.048C447.376 108.603 447.034 109.413 447.034 110.48V111.824C447.034 112.549 447.184 113.147 447.482 113.616C447.781 114.043 448.186 114.341 448.698 114.512C449.253 114.683 449.872 114.768 450.554 114.768ZM472.299 122V87.568H480.875L483.371 92.56C484.48 91.0667 485.76 89.7867 487.211 88.72C488.661 87.6107 490.389 87.056 492.395 87.056C492.779 87.056 493.205 87.0773 493.675 87.12C494.187 87.1627 494.656 87.248 495.083 87.376V98.704C494.4 98.6187 493.696 98.5547 492.971 98.512C492.245 98.4693 491.563 98.448 490.923 98.448C489.813 98.448 488.789 98.576 487.851 98.832C486.955 99.0453 486.123 99.3867 485.355 99.856C484.629 100.283 483.968 100.859 483.371 101.584V122H472.299ZM499.291 122V87.568H508.443L510.363 90.96C511.515 89.936 513.009 89.0187 514.843 88.208C516.721 87.3973 518.641 86.992 520.603 86.992C523.505 86.992 525.723 87.5467 527.259 88.656C528.795 89.7653 529.841 91.28 530.395 93.2C530.993 95.12 531.291 97.232 531.291 99.536V122H520.219V101.008C520.219 100.027 520.049 99.2373 519.707 98.64C519.366 98.0427 518.897 97.616 518.299 97.36C517.702 97.0613 516.998 96.912 516.187 96.912C515.462 96.912 514.737 97.0187 514.011 97.232C513.286 97.4027 512.625 97.6587 512.027 98C511.43 98.3413 510.875 98.7253 510.363 99.152V122H499.291Z" fill="#E0E0FF"/>
</svg>
